<?xml version="1.0" standalone="no"?>
<!DOCTYPE svg PUBLIC "-//W3C//DTD SVG 20010904//EN"
 "http://www.w3.org/TR/2001/REC-SVG-20010904/DTD/svg10.dtd">
<svg version="1.0" xmlns="http://www.w3.org/2000/svg"
 width="1280.000000pt" height="720.000000pt" viewBox="0 0 1280.000000 720.000000"
 preserveAspectRatio="xMidYMid meet">
<g transform="translate(0.000000,720.000000) scale(0.100000,-0.100000)"
fill="#000000" stroke="none">
<path d="M5260 6619 c-87 -11 -184 -61 -226 -116 -18 -23 -43 -68 -56 -100
l-23 -58 0 -2695 c0 -2515 1 -2699 17 -2750 35 -113 100 -180 209 -217 51 -17
123 -18 1224 -18 l1170 0 60 24 c77 30 144 98 176 177 l24 59 5 1192 c4 935 8
1195 18 1205 9 9 12 96 12 364 0 300 -2 353 -15 364 -12 10 -15 37 -15 121 0
82 4 111 15 123 12 12 15 46 15 179 0 134 -3 167 -15 177 -13 11 -15 116 -15
831 0 568 -3 834 -11 871 -34 161 -128 244 -302 267 -94 13 -2167 13 -2267 0z
m2495 -3019 l0 -2405 -1349 -3 c-989 -1 -1352 1 -1362 9 -19 16 -21 4778 -2
4797 9 9 320 11 1363 10 l1350 -3 0 -2405z"/>
</g>
</svg>
